<svg width="38" height="50" viewBox="0 0 38 50" fill="none" xmlns="http://www.w3.org/2000/svg">
<path d="M19 50C29.3562 50 37.75 43.75 37.75 32.8125C37.75 28.125 36.1875 20.3125 29.9375 14.0625C30.7188 18.75 26.0312 20.3125 26.0312 20.3125C28.375 12.5 22.125 1.5625 12.75 0C13.8656 6.25 14.3125 12.5 6.5 18.75C2.59375 21.875 0.25 27.2781 0.25 32.8125C0.25 43.75 8.64375 50 19 50ZM19 46.875C13.8219 46.875 9.625 43.75 9.625 38.2812C9.625 35.9375 10.4062 32.0312 13.5312 28.9062C13.1406 31.25 15.875 32.8125 15.875 32.8125C14.7031 28.9062 17.4375 22.6562 22.125 21.875C21.5656 25 21.3438 28.125 25.25 31.25C27.2031 32.8125 28.375 35.5125 28.375 38.2812C28.375 43.75 24.1781 46.875 19 46.875Z" fill="#E29578"/>
</svg>
