<svg width="50" height="50" viewBox="0 0 50 50" fill="none" xmlns="http://www.w3.org/2000/svg">
<g clip-path="url(#clip0_13_104)">
<path d="M25 14.8563C23.6679 14.8563 22.3488 15.1186 21.1181 15.6284C19.8874 16.1382 18.7692 16.8854 17.8272 17.8273C16.8853 18.7692 16.1381 19.8875 15.6283 21.1182C15.1186 22.3489 14.8562 23.6679 14.8562 25C14.8562 26.3321 15.1186 27.6512 15.6283 28.8819C16.1381 30.1126 16.8853 31.2308 17.8272 32.1727C18.7692 33.1147 19.8874 33.8618 21.1181 34.3716C22.3488 34.8814 23.6679 35.1438 25 35.1438C27.6902 35.1438 30.2703 34.075 32.1727 32.1727C34.075 30.2704 35.1437 27.6903 35.1437 25C35.1437 22.3097 34.075 19.7296 32.1727 17.8273C30.2703 15.925 27.6902 14.8563 25 14.8563ZM17.9812 25C17.9812 23.1385 18.7207 21.3533 20.0369 20.037C21.3532 18.7207 23.1385 17.9813 25 17.9813C26.8614 17.9813 28.6467 18.7207 29.963 20.037C31.2792 21.3533 32.0187 23.1385 32.0187 25C32.0187 26.8615 31.2792 28.6467 29.963 29.963C28.6467 31.2793 26.8614 32.0188 25 32.0188C23.1385 32.0188 21.3532 31.2793 20.0369 29.963C18.7207 28.6467 17.9812 26.8615 17.9812 25Z" fill="#EDF6FF"/>
<path d="M30.6125 4.19687C28.9656 -1.39688 21.0344 -1.39688 19.3875 4.19687L19.0938 5.19374C18.9788 5.58422 18.7778 5.94401 18.5057 6.24674C18.2336 6.54947 17.8972 6.78746 17.5211 6.94328C17.145 7.0991 16.7389 7.16879 16.3324 7.14724C15.9259 7.12569 15.5294 7.01345 15.1719 6.81874L14.2594 6.31874C9.1344 3.53124 3.53127 9.13749 6.3219 14.2594L6.81877 15.1719C7.01348 15.5293 7.12572 15.9259 7.14727 16.3324C7.16882 16.7388 7.09913 17.145 6.94331 17.5211C6.7875 17.8971 6.5495 18.2335 6.24677 18.5057C5.94404 18.7778 5.58425 18.9787 5.19377 19.0937L4.1969 19.3875C-1.39685 21.0344 -1.39685 28.9656 4.1969 30.6125L5.19377 30.9062C5.58425 31.0213 5.94404 31.2222 6.24677 31.4943C6.5495 31.7664 6.7875 32.1029 6.94331 32.4789C7.09913 32.855 7.16882 33.2611 7.14727 33.6676C7.12572 34.0741 7.01348 34.4706 6.81877 34.8281L6.31877 35.7406C3.53127 40.8656 9.1344 46.4719 14.2594 43.6781L15.1719 43.1812C15.5294 42.9865 15.9259 42.8743 16.3324 42.8528C16.7389 42.8312 17.145 42.9009 17.5211 43.0567C17.8972 43.2125 18.2336 43.4505 18.5057 43.7533C18.7778 44.056 18.9788 44.4158 19.0938 44.8062L19.3875 45.8031C21.0344 51.3969 28.9656 51.3969 30.6125 45.8031L30.9063 44.8062C31.0213 44.4158 31.2222 44.056 31.4943 43.7533C31.7665 43.4505 32.1029 43.2125 32.479 43.0567C32.855 42.9009 33.2612 42.8312 33.6677 42.8528C34.0742 42.8743 34.4707 42.9865 34.8282 43.1812L35.7407 43.6812C40.8657 46.4719 46.4719 40.8625 43.6782 35.7406L43.1813 34.8281C42.9866 34.4706 42.8743 34.0741 42.8528 33.6676C42.8312 33.2611 42.9009 32.855 43.0567 32.4789C43.2126 32.1029 43.4506 31.7664 43.7533 31.4943C44.056 31.2222 44.4158 31.0213 44.8063 30.9062L45.8032 30.6125C51.3969 28.9656 51.3969 21.0344 45.8032 19.3875L44.8063 19.0937C44.4158 18.9787 44.056 18.7778 43.7533 18.5057C43.4506 18.2335 43.2126 17.8971 43.0567 17.5211C42.9009 17.145 42.8312 16.7388 42.8528 16.3324C42.8743 15.9259 42.9866 15.5293 43.1813 15.1719L43.6813 14.2594C46.4719 9.13437 40.8625 3.53124 35.7407 6.32187L34.8282 6.81874C34.4707 7.01345 34.0742 7.12569 33.6677 7.14724C33.2612 7.16879 32.855 7.0991 32.479 6.94328C32.1029 6.78746 31.7665 6.54947 31.4943 6.24674C31.2222 5.94401 31.0213 5.58422 30.9063 5.19374L30.6125 4.19687ZM22.3844 5.08124C23.1531 2.47187 26.8469 2.47187 27.6157 5.08124L27.9094 6.07812C28.1563 6.91589 28.5876 7.68777 29.1717 8.33718C29.7557 8.98659 30.4777 9.49707 31.2846 9.83118C32.0916 10.1653 32.9631 10.3146 33.8353 10.2681C34.7074 10.2216 35.5581 9.9805 36.325 9.56249L37.2344 9.06249C39.6219 7.76562 42.2344 10.375 40.9344 12.7656L40.4375 13.6781C40.0201 14.4451 39.7796 15.2957 39.7337 16.1677C39.6877 17.0396 39.8374 17.9108 40.1717 18.7174C40.5061 19.5241 41.0168 20.2456 41.6662 20.8293C42.3156 21.413 43.0874 21.8439 43.925 22.0906L44.9188 22.3844C47.5281 23.1531 47.5281 26.8469 44.9188 27.6156L43.9219 27.9094C43.0841 28.1563 42.3122 28.5876 41.6628 29.1716C41.0134 29.7557 40.503 30.4776 40.1688 31.2846C39.8347 32.0916 39.6854 32.9631 39.7319 33.8353C39.7784 34.7074 40.0195 35.5581 40.4375 36.325L40.9375 37.2344C42.2344 39.6219 39.625 42.2344 37.2344 40.9344L36.325 40.4375C35.5579 40.0195 34.707 39.7786 33.8347 39.7323C32.9624 39.686 32.0907 39.8355 31.2837 40.1699C30.4767 40.5044 29.7548 41.0152 29.1709 41.665C28.587 42.3147 28.156 43.087 27.9094 43.925L27.6157 44.9187C26.8469 47.5281 23.1531 47.5281 22.3844 44.9187L22.0906 43.9219C21.8436 43.0845 21.4124 42.3131 20.8286 41.664C20.2447 41.0149 19.5231 40.5046 18.7166 40.1706C17.91 39.8365 17.0389 39.6871 16.1671 39.7333C15.2953 39.7795 14.4449 40.0201 13.6781 40.4375L12.7656 40.9375C10.3781 42.2344 7.76565 39.625 9.06565 37.2344L9.56252 36.325C9.98112 35.558 10.2227 34.707 10.2695 33.8345C10.3163 32.9619 10.1671 32.09 9.83297 31.2826C9.49882 30.4753 8.98813 29.7529 8.3384 29.1687C7.68866 28.5844 6.91635 28.1531 6.07815 27.9062L5.08127 27.6125C2.4719 26.8437 2.4719 23.15 5.08127 22.3812L6.07815 22.0875C6.91504 21.8403 7.68608 21.4092 8.33484 20.8256C8.9836 20.242 9.49366 19.5207 9.82769 18.7145C10.1617 17.9084 10.3113 17.0377 10.2654 16.1663C10.2195 15.2949 9.97936 14.4447 9.56252 13.6781L9.06252 12.7656C7.76565 10.3781 10.375 7.76562 12.7656 9.06562L13.6781 9.56249C14.4449 9.97992 15.2953 10.2205 16.1671 10.2667C17.0389 10.3129 17.91 10.1635 18.7166 9.82942C19.5231 9.49535 20.2447 8.98508 20.8286 8.336C21.4124 7.68691 21.8436 6.91545 22.0906 6.07812L22.3844 5.08124Z" fill="#EDF6FF"/>
</g>
<defs>
<clipPath id="clip0_13_104">
<rect width="50" height="50" fill="white"/>
</clipPath>
</defs>
</svg>
