<svg width="1020" height="1020" viewBox="0 0 1020 1020" fill="none" xmlns="http://www.w3.org/2000/svg">
<path d="M555.071 95.625C543.116 83.6737 526.904 76.9599 510 76.9599C493.096 76.9599 476.884 83.6737 464.929 95.625L41.1825 519.307C38.2189 522.271 35.868 525.789 34.2642 529.662C32.6603 533.534 31.8347 537.684 31.8347 541.875C31.8347 546.066 32.6603 550.216 34.2642 554.088C35.868 557.961 38.2189 561.479 41.1825 564.443C47.1678 570.428 55.2856 573.79 63.75 573.79C67.9412 573.79 72.0913 572.965 75.9635 571.361C79.8356 569.757 83.3539 567.406 86.3175 564.443L510 140.696L933.682 564.443C939.668 570.428 947.786 573.79 956.25 573.79C964.714 573.79 972.832 570.428 978.817 564.443C984.803 558.457 988.165 550.339 988.165 541.875C988.165 533.411 984.803 525.293 978.817 519.307L828.75 369.304V159.375C828.75 150.921 825.392 142.814 819.414 136.836C813.436 130.858 805.329 127.5 796.875 127.5H733.125C724.671 127.5 716.564 130.858 710.586 136.836C704.608 142.814 701.25 150.921 701.25 159.375V241.804L555.071 95.625Z" fill="#EDF6FF"/>
<path d="M510 209.929L810.9 510.829C760.603 515.537 714.212 539.954 681.855 578.749C649.499 617.543 633.805 667.564 638.201 717.889C618.623 729.027 602.345 745.154 591.024 764.627C579.703 784.1 573.743 806.225 573.75 828.75V956.25H223.125C197.764 956.25 173.441 946.175 155.508 928.242C137.575 910.309 127.5 885.986 127.5 860.625V592.429L510 209.929Z" fill="#EDF6FF"/>
<path d="M828.75 573.75C794.935 573.75 762.505 587.183 738.594 611.094C714.683 635.005 701.25 667.435 701.25 701.25V765C684.342 765 668.127 771.717 656.172 783.672C644.217 795.627 637.5 811.842 637.5 828.75V956.25C637.5 973.158 644.217 989.373 656.172 1001.33C668.127 1013.28 684.342 1020 701.25 1020H956.25C973.158 1020 989.373 1013.28 1001.33 1001.33C1013.28 989.373 1020 973.158 1020 956.25V828.75C1020 811.842 1013.28 795.627 1001.33 783.672C989.373 771.717 973.158 765 956.25 765V701.25C956.25 667.435 942.817 635.005 918.906 611.094C894.995 587.183 862.565 573.75 828.75 573.75ZM828.75 637.5C845.658 637.5 861.873 644.217 873.828 656.172C885.783 668.127 892.5 684.342 892.5 701.25V765H765V701.25C765 684.342 771.717 668.127 783.672 656.172C795.627 644.217 811.842 637.5 828.75 637.5Z" fill="#EDF6FF"/>
</svg>
