<svg width="50" height="50" viewBox="0 0 50 50" fill="none" xmlns="http://www.w3.org/2000/svg">
<path d="M21.9141 0.989626C22.519 0.355969 23.3393 0 24.1946 0C25.0499 0 25.8703 0.355969 26.4752 0.989626L33.8716 8.74002V4.36965C33.8716 3.92143 34.0416 3.49157 34.344 3.17463C34.6465 2.85769 35.0567 2.67964 35.4845 2.67964H38.7101C39.1379 2.67964 39.5481 2.85769 39.8506 3.17463C40.1531 3.49157 40.323 3.92143 40.323 4.36965V15.5001L47.9162 23.4533C48.0662 23.6104 48.1851 23.7969 48.2663 24.0022C48.3474 24.2075 48.3892 24.4276 48.3892 24.6498C48.3892 24.872 48.3474 25.0921 48.2663 25.2974C48.1851 25.5027 48.0662 25.6892 47.9162 25.8463C47.7663 26.0035 47.5882 26.1281 47.3923 26.2131C47.1964 26.2982 46.9864 26.342 46.7743 26.342C46.5623 26.342 46.3523 26.2982 46.1563 26.2131C45.9604 26.1281 45.7824 26.0035 45.6324 25.8463L24.1946 3.3793L8.06623 20.2794V41.5499C8.06623 41.9982 8.23615 42.428 8.53862 42.745C8.84108 43.0619 9.25131 43.2399 9.67906 43.2399H22.5818C23.0095 43.2399 23.4198 43.418 23.7222 43.7349C24.0247 44.0519 24.1946 44.4817 24.1946 44.93C24.1946 45.3782 24.0247 45.808 23.7222 46.125C23.4198 46.4419 23.0095 46.62 22.5818 46.62H9.67906C8.39581 46.62 7.16512 46.0858 6.25772 45.135C5.35032 44.1842 4.84055 42.8946 4.84055 41.5499V23.6595L2.75676 25.8463C2.60681 26.0035 2.42879 26.1281 2.23286 26.2131C2.03694 26.2982 1.82694 26.342 1.61488 26.342C1.40281 26.342 1.19281 26.2982 0.996889 26.2131C0.800964 26.1281 0.622941 26.0035 0.472986 25.8463C0.323031 25.6892 0.20408 25.5027 0.122925 25.2974C0.04177 25.0921 0 24.872 0 24.6498C0 24.4276 0.04177 24.2075 0.122925 24.0022C0.20408 23.7969 0.323031 23.6104 0.472986 23.4533L21.9141 0.989626Z" fill="#EDF6FF"/>
<path d="M36.7295 27.8946C37.3101 25.8227 40.11 25.8227 40.6939 27.8946L40.8326 28.3949C40.9192 28.7052 41.0711 28.9912 41.2771 29.2319C41.4831 29.4726 41.738 29.6618 42.023 29.7856C42.308 29.9095 42.6159 29.9649 42.924 29.9476C43.2321 29.9304 43.5326 29.841 43.8034 29.686L44.2421 29.4359C46.0517 28.4016 48.0323 30.477 47.0484 32.3732L46.8065 32.8328C46.6592 33.1165 46.5744 33.431 46.5583 33.7535C46.5422 34.0759 46.5951 34.3981 46.7133 34.6963C46.8315 34.9945 47.0118 35.2612 47.2412 35.4768C47.4705 35.6925 47.743 35.8516 48.0387 35.9425L48.5194 36.0946C50.4935 36.703 50.4935 39.6368 48.5194 40.2486L48.0355 40.394C47.7399 40.4855 47.4677 40.6453 47.2387 40.8615C47.0098 41.0777 46.8299 41.3448 46.7123 41.6434C46.5948 41.9419 46.5425 42.2643 46.5594 42.5868C46.5762 42.9092 46.6618 43.2237 46.8097 43.507L47.0484 43.9667C48.0323 45.8629 46.0517 47.9382 44.2421 46.9073L43.8034 46.6538C43.5327 46.4995 43.2325 46.4106 42.9248 46.3937C42.6171 46.3768 42.3097 46.4323 42.0251 46.5561C41.7405 46.6799 41.486 46.8689 41.2802 47.1092C41.0744 47.3496 40.9225 47.6351 40.8358 47.9449L40.6906 48.4486C40.11 50.5171 37.3101 50.5171 36.7263 48.4486L36.5876 47.9416C36.5002 47.6319 36.3478 47.3466 36.1414 47.1066C35.9351 46.8667 35.6801 46.6783 35.3952 46.5551C35.1103 46.4319 34.8027 46.3771 34.4949 46.3948C34.1872 46.4125 33.8871 46.5021 33.6167 46.6572L33.178 46.9073C31.3684 47.9382 29.3879 45.8629 30.3717 43.9667L30.6136 43.507C30.7609 43.2234 30.8457 42.9088 30.8619 42.5863C30.878 42.2639 30.825 41.9417 30.7069 41.6435C30.5887 41.3453 30.4083 41.0786 30.179 40.863C29.9496 40.6474 29.6771 40.4882 29.3814 40.3974L28.904 40.2486C26.9267 39.6368 26.9267 36.703 28.904 36.0912L29.3814 35.9459C29.6776 35.8551 29.9505 35.6959 30.1802 35.48C30.4099 35.2641 30.5905 34.9971 30.7087 34.6984C30.8269 34.3998 30.8797 34.0772 30.8633 33.7543C30.8468 33.4315 30.7615 33.1166 30.6136 32.8328L30.3749 32.3732C29.3879 30.477 31.3684 28.4016 33.178 29.4325L33.6167 29.686C33.8874 29.8404 34.1876 29.9292 34.4953 29.9461C34.8031 29.9631 35.1105 29.9076 35.3951 29.7837C35.6797 29.6599 35.9342 29.4709 36.14 29.2306C36.3458 28.9903 36.4976 28.7047 36.5844 28.3949L36.7295 27.8946ZM43.5486 38.1699C43.5486 37.5041 43.4234 36.8448 43.1803 36.2297C42.9371 35.6146 42.5807 35.0556 42.1314 34.5849C41.6821 34.1141 41.1487 33.7406 40.5617 33.4858C39.9747 33.231 39.3455 33.0999 38.7101 33.0999C38.0747 33.0999 37.4455 33.231 36.8585 33.4858C36.2714 33.7406 35.738 34.1141 35.2887 34.5849C34.8394 35.0556 34.483 35.6146 34.2399 36.2297C33.9967 36.8448 33.8716 37.5041 33.8716 38.1699C33.8716 39.5146 34.3813 40.8042 35.2887 41.755C36.1961 42.7058 37.4268 43.24 38.7101 43.24C39.9933 43.24 41.224 42.7058 42.1314 41.755C43.0388 40.8042 43.5486 39.5146 43.5486 38.1699Z" fill="#EDF6FF"/>
</svg>
