<svg width="50" height="50" viewBox="0 0 50 50" fill="none" xmlns="http://www.w3.org/2000/svg">
<g clip-path="url(#clip0_15_120)">
<path d="M37.9566 0.456419C38.1018 0.310908 38.2742 0.195462 38.464 0.116692C38.6538 0.0379217 38.8573 -0.00262451 39.0629 -0.00262451C39.2684 -0.00262451 39.4719 0.0379217 39.6617 0.116692C39.8516 0.195462 40.024 0.310908 40.1691 0.456419L49.5441 9.83142C49.6896 9.97656 49.8051 10.149 49.8838 10.3388C49.9626 10.5286 50.0032 10.7321 50.0032 10.9377C50.0032 11.1432 49.9626 11.3467 49.8838 11.5365C49.8051 11.7264 49.6896 11.8988 49.5441 12.0439L18.2941 43.2939C18.1442 43.4428 17.9656 43.5598 17.7691 43.6377L2.14412 49.8877C1.86017 50.0013 1.54911 50.0291 1.24949 49.9677C0.94988 49.9062 0.674893 49.7582 0.458623 49.5419C0.242353 49.3256 0.0943103 49.0507 0.0328496 48.751C-0.0286112 48.4514 -0.000787793 48.1404 0.112871 47.8564L6.36287 32.2314C6.44077 32.035 6.55771 31.8564 6.70662 31.7064L37.9566 0.456419ZM35.0222 7.81267L42.1879 14.9783L46.2285 10.9377L39.0629 3.77204L35.0222 7.81267ZM39.9785 17.1877L32.8129 10.022L12.5004 30.3345V31.2502H14.0629C14.4773 31.2502 14.8747 31.4148 15.1677 31.7078C15.4607 32.0008 15.6254 32.3983 15.6254 32.8127V34.3752H17.1879C17.6023 34.3752 17.9997 34.5398 18.2927 34.8328C18.5857 35.1258 18.7504 35.5233 18.7504 35.9377V37.5002H19.666L39.9785 17.1877ZM9.47537 33.3595L9.14412 33.6908L4.36912 45.6314L16.3097 40.8564L16.641 40.5252C16.3429 40.4138 16.086 40.2141 15.9045 39.9527C15.723 39.6914 15.6256 39.3809 15.6254 39.0627V37.5002H14.0629C13.6485 37.5002 13.251 37.3355 12.958 37.0425C12.665 36.7495 12.5004 36.3521 12.5004 35.9377V34.3752H10.9379C10.6197 34.3749 10.3091 34.2775 10.0478 34.0961C9.78645 33.9146 9.58674 33.6576 9.47537 33.3595Z" fill="#EDF6FF"/>
</g>
<defs>
<clipPath id="clip0_15_120">
<rect width="50" height="50" fill="white"/>
</clipPath>
</defs>
</svg>
