<svg width="51" height="50" viewBox="0 0 51 50" fill="none" xmlns="http://www.w3.org/2000/svg">
<g clip-path="url(#clip0_13_111)">
<path d="M47.1903 43.75C47.1903 43.75 50.3153 43.75 50.3153 40.625C50.3153 37.5 47.1903 28.125 34.6903 28.125C22.1903 28.125 19.0653 37.5 19.0653 40.625C19.0653 43.75 22.1903 43.75 22.1903 43.75H47.1903ZM22.2591 40.625C22.236 40.6218 22.213 40.6176 22.1903 40.6125C22.1934 39.7875 22.7122 37.3937 24.5653 35.2375C26.2903 33.2156 29.3216 31.25 34.6903 31.25C40.0559 31.25 43.0872 33.2188 44.8153 35.2375C46.6684 37.3937 47.1841 39.7906 47.1903 40.6125L47.1653 40.6188C47.1508 40.6212 47.1362 40.6233 47.1216 40.625H22.2591ZM34.6903 21.875C36.3479 21.875 37.9376 21.2165 39.1097 20.0444C40.2818 18.8723 40.9403 17.2826 40.9403 15.625C40.9403 13.9674 40.2818 12.3777 39.1097 11.2056C37.9376 10.0335 36.3479 9.375 34.6903 9.375C33.0327 9.375 31.443 10.0335 30.2709 11.2056C29.0988 12.3777 28.4403 13.9674 28.4403 15.625C28.4403 17.2826 29.0988 18.8723 30.2709 20.0444C31.443 21.2165 33.0327 21.875 34.6903 21.875ZM44.0653 15.625C44.0653 16.8561 43.8228 18.0752 43.3517 19.2127C42.8805 20.3501 42.19 21.3836 41.3194 22.2541C40.4489 23.1247 39.4154 23.8152 38.278 24.2864C37.1405 24.7575 35.9215 25 34.6903 25C33.4592 25 32.2401 24.7575 31.1026 24.2864C29.9652 23.8152 28.9317 23.1247 28.0612 22.2541C27.1906 21.3836 26.5001 20.3501 26.0289 19.2127C25.5578 18.0752 25.3153 16.8561 25.3153 15.625C25.3153 13.1386 26.303 10.754 28.0612 8.99587C29.8193 7.23772 32.2039 6.25 34.6903 6.25C37.1767 6.25 39.5613 7.23772 41.3194 8.99587C43.0776 10.754 44.0653 13.1386 44.0653 15.625ZM21.9903 29C20.7402 28.6064 19.4517 28.3476 18.1466 28.2281C17.4132 28.1584 16.677 28.124 15.9403 28.125C3.44031 28.125 0.315308 37.5 0.315308 40.625C0.315308 42.7094 1.35593 43.75 3.44031 43.75H16.6153C16.152 42.7744 15.921 41.7048 15.9403 40.625C15.9403 37.4688 17.1184 34.2437 19.3466 31.55C20.1059 30.6312 20.9903 29.7719 21.9903 29ZM15.6903 31.25C13.8408 34.029 12.8417 37.2869 12.8153 40.625H3.44031C3.44031 39.8125 3.95281 37.4062 5.81531 35.2375C7.51843 33.25 10.4778 31.3125 15.6903 31.2531V31.25ZM5.00281 17.1875C5.00281 14.7011 5.99053 12.3165 7.74868 10.5584C9.50683 8.80022 11.8914 7.8125 14.3778 7.8125C16.8642 7.8125 19.2488 8.80022 21.0069 10.5584C22.7651 12.3165 23.7528 14.7011 23.7528 17.1875C23.7528 19.6739 22.7651 22.0585 21.0069 23.8166C19.2488 25.5748 16.8642 26.5625 14.3778 26.5625C11.8914 26.5625 9.50683 25.5748 7.74868 23.8166C5.99053 22.0585 5.00281 19.6739 5.00281 17.1875ZM14.3778 10.9375C12.7202 10.9375 11.1305 11.596 9.95839 12.7681C8.78629 13.9402 8.12781 15.5299 8.12781 17.1875C8.12781 18.8451 8.78629 20.4348 9.95839 21.6069C11.1305 22.779 12.7202 23.4375 14.3778 23.4375C16.0354 23.4375 17.6251 22.779 18.7972 21.6069C19.9693 20.4348 20.6278 18.8451 20.6278 17.1875C20.6278 15.5299 19.9693 13.9402 18.7972 12.7681C17.6251 11.596 16.0354 10.9375 14.3778 10.9375Z" fill="#EDF6FF"/>
</g>
<defs>
<clipPath id="clip0_13_111">
<rect width="50" height="50" fill="white" transform="translate(0.315308)"/>
</clipPath>
</defs>
</svg>
