<svg width="400" height="400" viewBox="0 0 400 400" fill="none" xmlns="http://www.w3.org/2000/svg">
<g clip-path="url(#clip0_71_24)" filter="url(#filter0_i_71_24)">
<path d="M275 150C275 169.891 267.098 188.968 253.033 203.033C238.968 217.098 219.891 225 200 225C180.109 225 161.032 217.098 146.967 203.033C132.902 188.968 125 169.891 125 150C125 130.109 132.902 111.032 146.967 96.967C161.032 82.9018 180.109 75 200 75C219.891 75 238.968 82.9018 253.033 96.967C267.098 111.032 275 130.109 275 150Z" fill="#83C5BE"/>
<path fill-rule="evenodd" clip-rule="evenodd" d="M0 200C0 146.957 21.0714 96.0859 58.5786 58.5786C96.0859 21.0714 146.957 0 200 0C253.043 0 303.914 21.0714 341.421 58.5786C378.929 96.0859 400 146.957 400 200C400 253.043 378.929 303.914 341.421 341.421C303.914 378.929 253.043 400 200 400C146.957 400 96.0859 378.929 58.5786 341.421C21.0714 303.914 0 253.043 0 200ZM200 25C167.044 25.0018 134.759 34.3091 106.86 51.8507C78.961 69.3923 56.5821 94.4553 42.2991 124.155C28.0161 153.854 22.4097 186.983 26.125 219.729C29.8403 252.474 42.7263 283.505 63.3 309.25C81.05 280.65 120.125 250 200 250C279.875 250 318.925 280.625 336.7 309.25C357.274 283.505 370.16 252.474 373.875 219.729C377.59 186.983 371.984 153.854 357.701 124.155C343.418 94.4553 321.039 69.3923 293.14 51.8507C265.241 34.3091 232.956 25.0018 200 25Z" fill="#83C5BE"/>
</g>
<defs>
<filter id="filter0_i_71_24" x="0" y="0" width="400" height="404" filterUnits="userSpaceOnUse" color-interpolation-filters="sRGB">
<feFlood flood-opacity="0" result="BackgroundImageFix"/>
<feBlend mode="normal" in="SourceGraphic" in2="BackgroundImageFix" result="shape"/>
<feColorMatrix in="SourceAlpha" type="matrix" values="0 0 0 0 0 0 0 0 0 0 0 0 0 0 0 0 0 0 127 0" result="hardAlpha"/>
<feOffset dy="4"/>
<feGaussianBlur stdDeviation="2"/>
<feComposite in2="hardAlpha" operator="arithmetic" k2="-1" k3="1"/>
<feColorMatrix type="matrix" values="0 0 0 0 0 0 0 0 0 0 0 0 0 0 0 0 0 0 0.25 0"/>
<feBlend mode="normal" in2="shape" result="effect1_innerShadow_71_24"/>
</filter>
<clipPath id="clip0_71_24">
<rect width="400" height="400" fill="white"/>
</clipPath>
</defs>
</svg>
