<svg width="50" height="50" viewBox="0 0 50 50" fill="none" xmlns="http://www.w3.org/2000/svg">
<g clip-path="url(#clip0_15_158)">
<path d="M43.3719 32.5437C41.8691 31.552 40.07 31.1095 38.2786 31.2911C36.4873 31.4726 34.8135 32.2672 33.5403 33.5403C32.2672 34.8135 31.4726 36.4873 31.2911 38.2786C31.1095 40.07 31.552 41.8691 32.5437 43.3719L43.3719 32.5437ZM45.5813 34.7531L34.7531 45.5813C36.2559 46.573 38.055 47.0155 39.8464 46.8339C41.6377 46.6524 43.3115 45.8578 44.5846 44.5846C45.8578 43.3115 46.6524 41.6377 46.8339 39.8464C47.0155 38.055 46.573 36.2559 45.5813 34.7531ZM31.3312 31.3281C32.3432 30.2959 33.5498 29.4745 34.8812 28.9115C36.2125 28.3484 37.6423 28.0549 39.0878 28.0478C40.5333 28.0407 41.9659 28.3203 43.3027 28.8702C44.6396 29.4202 45.8541 30.2297 46.8762 31.252C47.8982 32.2742 48.7075 33.4889 49.2572 34.8259C49.8069 36.1628 50.0861 37.5954 50.0788 39.041C50.0714 40.4865 49.7775 41.9162 49.2142 43.2475C48.6509 44.5787 47.8293 45.7851 46.7969 46.7969C44.7456 48.8482 41.9635 50.0006 39.0625 50.0006C36.1615 50.0006 33.3794 48.8482 31.3281 46.7969C29.2768 44.7456 28.1244 41.9635 28.1244 39.0625C28.1244 36.1615 29.2768 33.3794 31.3281 31.3281H31.3312ZM34.375 15.625C34.375 18.1114 33.3873 20.496 31.6291 22.2541C29.871 24.0123 27.4864 25 25 25C22.5136 25 20.129 24.0123 18.3709 22.2541C16.6127 20.496 15.625 18.1114 15.625 15.625C15.625 13.1386 16.6127 10.754 18.3709 8.99587C20.129 7.23772 22.5136 6.25 25 6.25C27.4864 6.25 29.871 7.23772 31.6291 8.99587C33.3873 10.754 34.375 13.1386 34.375 15.625ZM25 21.875C26.6576 21.875 28.2473 21.2165 29.4194 20.0444C30.5915 18.8723 31.25 17.2826 31.25 15.625C31.25 13.9674 30.5915 12.3777 29.4194 11.2056C28.2473 10.0335 26.6576 9.375 25 9.375C23.3424 9.375 21.7527 10.0335 20.5806 11.2056C19.4085 12.3777 18.75 13.9674 18.75 15.625C18.75 17.2826 19.4085 18.8723 20.5806 20.0444C21.7527 21.2165 23.3424 21.875 25 21.875ZM25.8 43.75C25.4415 42.7352 25.2014 41.6824 25.0844 40.6125H9.375C9.37812 39.8438 9.85625 37.5312 11.975 35.4125C14.0125 33.375 17.8469 31.25 25 31.25C25.8125 31.25 26.5844 31.2781 27.3125 31.3281C28.0187 30.2625 28.8625 29.2969 29.825 28.4594C28.3656 28.2438 26.7625 28.125 25 28.125C9.375 28.125 6.25 37.5 6.25 40.625C6.25 43.75 9.375 43.75 9.375 43.75H25.8Z" fill="black"/>
</g>
<defs>
<clipPath id="clip0_15_158">
<rect width="50" height="50" fill="white"/>
</clipPath>
</defs>
</svg>
