<svg width="50" height="50" viewBox="0 0 50 50" fill="none" xmlns="http://www.w3.org/2000/svg">
<path d="M34.375 15.625C34.375 18.1114 33.3873 20.496 31.6291 22.2541C29.871 24.0123 27.4864 25 25 25C22.5136 25 20.129 24.0123 18.3709 22.2541C16.6127 20.496 15.625 18.1114 15.625 15.625C15.625 13.1386 16.6127 10.754 18.3709 8.99587C20.129 7.23772 22.5136 6.25 25 6.25C27.4864 6.25 29.871 7.23772 31.6291 8.99587C33.3873 10.754 34.375 13.1386 34.375 15.625ZM25 21.875C26.6576 21.875 28.2473 21.2165 29.4194 20.0444C30.5915 18.8723 31.25 17.2826 31.25 15.625C31.25 13.9674 30.5915 12.3777 29.4194 11.2056C28.2473 10.0335 26.6576 9.375 25 9.375C23.3424 9.375 21.7527 10.0335 20.5806 11.2056C19.4085 12.3777 18.75 13.9674 18.75 15.625C18.75 17.2826 19.4085 18.8723 20.5806 20.0444C21.7527 21.2165 23.3424 21.875 25 21.875ZM25.8 43.75C25.4415 42.7352 25.2014 41.6824 25.0844 40.6125H9.375C9.37812 39.8438 9.85625 37.5312 11.975 35.4125C14.0125 33.375 17.8469 31.25 25 31.25C25.8125 31.25 26.5844 31.2781 27.3125 31.3281C28.0187 30.2625 28.8625 29.2969 29.825 28.4594C28.3656 28.2438 26.7625 28.125 25 28.125C9.375 28.125 6.25 37.5 6.25 40.625C6.25 43.75 9.375 43.75 9.375 43.75H25.8Z" fill="black"/>
<path d="M50 39.0625C50 41.9633 48.8477 44.7453 46.7965 46.7965C44.7453 48.8477 41.9633 50 39.0625 50C36.1617 50 33.3797 48.8477 31.3285 46.7965C29.2773 44.7453 28.125 41.9633 28.125 39.0625C28.125 36.1617 29.2773 33.3797 31.3285 31.3285C33.3797 29.2773 36.1617 28.125 39.0625 28.125C41.9633 28.125 44.7453 29.2773 46.7965 31.3285C48.8477 33.3797 50 36.1617 50 39.0625ZM39.0625 32.8125C38.6481 32.8125 38.2507 32.9771 37.9576 33.2701C37.6646 33.5632 37.5 33.9606 37.5 34.375V39.0625C37.5 39.4769 37.6646 39.8743 37.9576 40.1674C38.2507 40.4604 38.6481 40.625 39.0625 40.625C39.4769 40.625 39.8743 40.4604 40.1674 40.1674C40.4604 39.8743 40.625 39.4769 40.625 39.0625V34.375C40.625 33.9606 40.4604 33.5632 40.1674 33.2701C39.8743 32.9771 39.4769 32.8125 39.0625 32.8125ZM39.0625 45.3125C39.4769 45.3125 39.8743 45.1479 40.1674 44.8549C40.4604 44.5618 40.625 44.1644 40.625 43.75C40.625 43.3356 40.4604 42.9382 40.1674 42.6451C39.8743 42.3521 39.4769 42.1875 39.0625 42.1875C38.6481 42.1875 38.2507 42.3521 37.9576 42.6451C37.6646 42.9382 37.5 43.3356 37.5 43.75C37.5 44.1644 37.6646 44.5618 37.9576 44.8549C38.2507 45.1479 38.6481 45.3125 39.0625 45.3125Z" fill="black"/>
</svg>
