<svg width="50" height="50" viewBox="0 0 50 50" fill="none" xmlns="http://www.w3.org/2000/svg">
<path d="M34.375 15.625C34.375 18.1114 33.3873 20.496 31.6291 22.2541C29.871 24.0123 27.4864 25 25 25C22.5136 25 20.129 24.0123 18.3709 22.2541C16.6127 20.496 15.625 18.1114 15.625 15.625C15.625 13.1386 16.6127 10.754 18.3709 8.99587C20.129 7.23772 22.5136 6.25 25 6.25C27.4864 6.25 29.871 7.23772 31.6291 8.99587C33.3873 10.754 34.375 13.1386 34.375 15.625ZM25 21.875C26.6576 21.875 28.2473 21.2165 29.4194 20.0444C30.5915 18.8723 31.25 17.2826 31.25 15.625C31.25 13.9674 30.5915 12.3777 29.4194 11.2056C28.2473 10.0335 26.6576 9.375 25 9.375C23.3424 9.375 21.7527 10.0335 20.5806 11.2056C19.4085 12.3777 18.75 13.9674 18.75 15.625C18.75 17.2826 19.4085 18.8723 20.5806 20.0444C21.7527 21.2165 23.3424 21.875 25 21.875ZM25 40.6125V43.75H9.375C9.375 43.75 6.25 43.75 6.25 40.625C6.25 37.5 9.375 28.125 25 28.125C26.7625 28.125 28.3656 28.2438 29.825 28.4594C28.8629 29.298 28.0188 30.263 27.3156 31.3281C26.5449 31.2747 25.7726 31.2487 25 31.25C17.8438 31.25 14.0125 33.375 11.975 35.4125C9.85625 37.5312 9.38125 39.8438 9.375 40.6125H25ZM28.125 40.625C28.125 39.7962 28.4542 39.0013 29.0403 38.4153C29.6263 37.8292 30.4212 37.5 31.25 37.5V34.375C31.25 32.7174 31.9085 31.1277 33.0806 29.9556C34.2527 28.7835 35.8424 28.125 37.5 28.125C39.1576 28.125 40.7473 28.7835 41.9194 29.9556C43.0915 31.1277 43.75 32.7174 43.75 34.375V37.5C44.5788 37.5 45.3737 37.8292 45.9597 38.4153C46.5458 39.0013 46.875 39.7962 46.875 40.625V46.875C46.875 47.7038 46.5458 48.4987 45.9597 49.0847C45.3737 49.6708 44.5788 50 43.75 50H31.25C30.4212 50 29.6263 49.6708 29.0403 49.0847C28.4542 48.4987 28.125 47.7038 28.125 46.875V40.625ZM37.5 31.25C36.6712 31.25 35.8763 31.5792 35.2903 32.1653C34.7042 32.7513 34.375 33.5462 34.375 34.375V37.5H40.625V34.375C40.625 33.5462 40.2958 32.7513 39.7097 32.1653C39.1237 31.5792 38.3288 31.25 37.5 31.25Z" fill="black"/>
</svg>
