<svg width="50" height="50" viewBox="0 0 50 50" fill="none" xmlns="http://www.w3.org/2000/svg">
<g clip-path="url(#clip0_15_195)">
<path d="M26.5625 15.7313V19.1688L29.5406 17.45L31.1031 20.1594L28.125 21.875L31.1031 23.5938L29.5406 26.3L26.5625 24.5813V28.0188H23.4375V24.5813L20.4594 26.3L18.8969 23.5938L21.875 21.875L18.8969 20.1563L20.4594 17.45L23.4375 19.1688V15.7313H26.5625ZM41.4062 28.125C41.1991 28.125 41.0003 28.2073 40.8538 28.3538C40.7073 28.5003 40.625 28.6991 40.625 28.9063V30.4688C40.625 30.9 40.975 31.25 41.4062 31.25H42.9688C43.1759 31.25 43.3747 31.1677 43.5212 31.0212C43.6677 30.8747 43.75 30.676 43.75 30.4688V28.9063C43.75 28.6991 43.6677 28.5003 43.5212 28.3538C43.3747 28.2073 43.1759 28.125 42.9688 28.125H41.4062ZM40.625 35.1563C40.625 34.9491 40.7073 34.7503 40.8538 34.6038C41.0003 34.4573 41.1991 34.375 41.4062 34.375H42.9688C43.1759 34.375 43.3747 34.4573 43.5212 34.6038C43.6677 34.7503 43.75 34.9491 43.75 35.1563V36.7188C43.75 36.926 43.6677 37.1247 43.5212 37.2712C43.3747 37.4177 43.1759 37.5 42.9688 37.5H41.4062C41.1991 37.5 41.0003 37.4177 40.8538 37.2712C40.7073 37.1247 40.625 36.926 40.625 36.7188V35.1563ZM41.4062 40.625C41.1991 40.625 41.0003 40.7073 40.8538 40.8538C40.7073 41.0003 40.625 41.1991 40.625 41.4063V42.9688C40.625 43.4 40.975 43.75 41.4062 43.75H42.9688C43.1759 43.75 43.3747 43.6677 43.5212 43.5212C43.6677 43.3747 43.75 43.176 43.75 42.9688V41.4063C43.75 41.1991 43.6677 41.0003 43.5212 40.8538C43.3747 40.7073 43.1759 40.625 42.9688 40.625H41.4062ZM7.03125 28.125C6.82405 28.125 6.62534 28.2073 6.47882 28.3538C6.33231 28.5003 6.25 28.6991 6.25 28.9063V30.4688C6.25 30.9 6.6 31.25 7.03125 31.25H8.59375C8.80095 31.25 8.99966 31.1677 9.14618 31.0212C9.29269 30.8747 9.375 30.676 9.375 30.4688V28.9063C9.375 28.6991 9.29269 28.5003 9.14618 28.3538C8.99966 28.2073 8.80095 28.125 8.59375 28.125H7.03125ZM7.03125 34.375C6.82405 34.375 6.62534 34.4573 6.47882 34.6038C6.33231 34.7503 6.25 34.9491 6.25 35.1563V36.7188C6.25 37.15 6.6 37.5 7.03125 37.5H8.59375C8.80095 37.5 8.99966 37.4177 9.14618 37.2712C9.29269 37.1247 9.375 36.926 9.375 36.7188V35.1563C9.375 34.9491 9.29269 34.7503 9.14618 34.6038C8.99966 34.4573 8.80095 34.375 8.59375 34.375H7.03125ZM6.25 41.4063C6.25 41.1991 6.33231 41.0003 6.47882 40.8538C6.62534 40.7073 6.82405 40.625 7.03125 40.625H8.59375C8.80095 40.625 8.99966 40.7073 9.14618 40.8538C9.29269 41.0003 9.375 41.1991 9.375 41.4063V42.9688C9.375 43.176 9.29269 43.3747 9.14618 43.5212C8.99966 43.6677 8.80095 43.75 8.59375 43.75H7.03125C6.82405 43.75 6.62534 43.6677 6.47882 43.5212C6.33231 43.3747 6.25 43.176 6.25 42.9688V41.4063Z" fill="black"/>
<path d="M15.625 3.125C15.625 2.2962 15.9542 1.50134 16.5403 0.915291C17.1263 0.32924 17.9212 0 18.75 0L31.25 0C32.0788 0 32.8737 0.32924 33.4597 0.915291C34.0458 1.50134 34.375 2.2962 34.375 3.125V6.25C35.2038 6.25 35.9987 6.57924 36.5847 7.16529C37.1708 7.75134 37.5 8.5462 37.5 9.375V21.875H46.875C47.7038 21.875 48.4987 22.2042 49.0847 22.7903C49.6708 23.3763 50 24.1712 50 25V46.875C50 47.7038 49.6708 48.4987 49.0847 49.0847C48.4987 49.6708 47.7038 50 46.875 50H3.125C2.2962 50 1.50134 49.6708 0.915291 49.0847C0.32924 48.4987 0 47.7038 0 46.875V25C0 24.1712 0.32924 23.3763 0.915291 22.7903C1.50134 22.2042 2.2962 21.875 3.125 21.875H12.5V9.375C12.5 8.5462 12.8292 7.75134 13.4153 7.16529C14.0013 6.57924 14.7962 6.25 15.625 6.25V3.125ZM21.875 46.875H28.125V37.5H21.875V46.875ZM31.25 46.875H34.375V9.375H15.625V46.875H18.75V37.5C18.75 36.6712 19.0792 35.8763 19.6653 35.2903C20.2513 34.7042 21.0462 34.375 21.875 34.375H28.125C28.9538 34.375 29.7487 34.7042 30.3347 35.2903C30.9208 35.8763 31.25 36.6712 31.25 37.5V46.875ZM31.25 3.125H18.75V6.25H31.25V3.125ZM37.5 25V46.875H46.875V25H37.5ZM12.5 46.875V25H3.125V46.875H12.5Z" fill="black"/>
</g>
<defs>
<clipPath id="clip0_15_195">
<rect width="50" height="50" fill="white"/>
</clipPath>
</defs>
</svg>
