<svg width="49" height="50" viewBox="0 0 49 50" fill="none" xmlns="http://www.w3.org/2000/svg">
<g clip-path="url(#clip0_15_153)">
<path d="M9.17779 46.4101C8.93952 47.7976 10.2775 48.882 11.4566 48.2632L24.8668 41.2132L38.2739 48.2632C39.4531 48.882 40.791 47.7976 40.5528 46.4132L38.0174 31.632L48.7761 21.1445C49.7841 20.1632 49.2648 18.3695 47.9146 18.1757L32.9526 16.0007L26.2811 2.47886C26.154 2.20477 25.9535 1.97319 25.7029 1.81103C25.4523 1.64887 25.1618 1.56279 24.8653 1.56279C24.5687 1.56279 24.2783 1.64887 24.0276 1.81103C23.777 1.97319 23.5765 2.20477 23.4494 2.47886L16.7779 16.0039L1.81593 18.1789C0.468801 18.3726 -0.0535554 20.1664 0.951446 21.1476L11.7132 31.6351L9.17779 46.4164V46.4101ZM24.1612 37.7632L12.9015 43.682L15.0215 31.3164C15.0711 31.0317 15.0517 30.7389 14.9649 30.4638C14.8781 30.1886 14.7265 29.9395 14.5235 29.7382L5.64654 21.082L18.0242 19.282C18.2806 19.2424 18.5237 19.1398 18.7327 18.9831C18.9418 18.8263 19.1106 18.6201 19.2247 18.382L24.8607 6.95074L30.5028 18.382C30.6169 18.6201 30.7857 18.8263 30.9948 18.9831C31.2038 19.1398 31.447 19.2424 31.7033 19.282L44.081 21.0789L35.204 29.7351C35.0005 29.9367 34.8487 30.1863 34.7619 30.4621C34.675 30.7378 34.6559 31.0312 34.706 31.3164L36.826 43.682L25.5663 37.7632C25.3486 37.6484 25.1072 37.5885 24.8622 37.5885C24.6173 37.5885 24.3789 37.6484 24.1612 37.7632Z" fill="#83C5BE"/>
</g>
<defs>
<clipPath id="clip0_15_153">
<rect width="48.8754" height="50" fill="white"/>
</clipPath>
</defs>
</svg>
